HIERARCHY
ROOT Hips
{
	OFFSET -0.001795 -0.223333 0.028219
	CHANNELS 6 Xposition Yposition Zposition Zrotation Yrotation Xrotation 
	JOINT LeftUpLeg
	{
		OFFSET 0.069520 -0.091406 -0.006815
		CHANNELS 3 Zrotation Yrotation Xrotation
		JOINT LeftLeg
		{
			OFFSET 0.034277 -0.375199 -0.004496
			CHANNELS 3 Zrotation Yrotation Xrotation
			JOINT LeftFoot
			{
				OFFSET -0.013596 -0.397961 -0.043693
				CHANNELS 3 Zrotation Yrotation Xrotation
				JOINT LeftToe
				{
					OFFSET 0.026358 -0.055791 0.119288
					CHANNELS 3 Zrotation Yrotation Xrotation
					End Site
					{
						OFFSET 0.000000 0.000000 0.000000
					}
				}
			}
		}
	}
	JOINT RightUpLeg
	{
		OFFSET -0.067670 -0.090522 -0.004320
		CHANNELS 3 Zrotation Yrotation Xrotation
		JOINT RightLeg
		{
			OFFSET -0.038290 -0.382569 -0.008850
			CHANNELS 3 Zrotation Yrotation Xrotation
			JOINT RightFoot
			{
				OFFSET 0.015774 -0.398415 -0.042312
				CHANNELS 3 Zrotation Yrotation Xrotation
				JOINT RightToe
				{
					OFFSET -0.025372 -0.048144 0.123348
					CHANNELS 3 Zrotation Yrotation Xrotation
					End Site
					{
						OFFSET 0.000000 0.000000 0.000000
					}
				}
			}
		}
	}
	JOINT Spine
	{
		OFFSET -0.002533 0.108963 -0.026696
		CHANNELS 3 Zrotation Yrotation Xrotation
		JOINT Spine1
		{
			OFFSET 0.005487 0.135180 0.001092
			CHANNELS 3 Zrotation Yrotation Xrotation
			JOINT Spine2
			{
				OFFSET 0.001457 0.052922 0.025425
				CHANNELS 3 Zrotation Yrotation Xrotation
				JOINT Neck
				{
					OFFSET -0.002778 0.213870 -0.042857
					CHANNELS 3 Zrotation Yrotation Xrotation
					JOINT Head
					{
						OFFSET 0.005152 0.064970 0.051349
						CHANNELS 3 Zrotation Yrotation Xrotation
						End Site
						{
							OFFSET 0.000000 0.000000 0.000000
						}
					}
				}
				JOINT LeftShoulder
				{
					OFFSET 0.078845 0.121749 -0.034090
					CHANNELS 3 Zrotation Yrotation Xrotation
					JOINT LeftArm
					{
						OFFSET 0.090977 0.030469 -0.008868
						CHANNELS 3 Zrotation Yrotation Xrotation
						JOINT LeftForeArm
						{
							OFFSET 0.259612 -0.012772 -0.027456
							CHANNELS 3 Zrotation Yrotation Xrotation
							JOINT LeftHand
							{
								OFFSET 0.249234 0.008986 -0.001171
								CHANNELS 3 Zrotation Yrotation Xrotation
								End Site
								{
									OFFSET 0.000000 0.000000 0.000000
								}
							}
						}
					}
				}
				JOINT RightShoulder
				{
					OFFSET -0.081759 0.118833 -0.038615
					CHANNELS 3 Zrotation Yrotation Xrotation
					JOINT RightArm
					{
						OFFSET -0.096012 0.032551 -0.009143
						CHANNELS 3 Zrotation Yrotation Xrotation
						JOINT RightForeArm
						{
							OFFSET -0.253742 -0.013329 -0.021401
							CHANNELS 3 Zrotation Yrotation Xrotation
							JOINT RightHand
							{
								OFFSET -0.255298 0.007772 -0.005559
								CHANNELS 3 Zrotation Yrotation Xrotation
								End Site
								{
									OFFSET 0.000000 0.000000 0.000000
								}
							}
						}
					}
				}
			}
		}
	}
}
MOTION
Frames: 16
Frame Time: 0.050000
0.000000 0.952824 0.000000 -1.835302 -0.587806 5.071256 6.939367 -0.139417 0.365605 -0.933383 0.249626 -5.731425 5.114703 12.958015 13.251168 0.000000 0.000000 0.000000 -2.968743 0.299680 -2.609466 1.237356 -0.212617 -2.950976 -6.758169 -18.310221 28.034172 0.000000 0.000000 0.000000 -1.735598 0.066496 -0.890893 5.014413 -0.325195 -27.837229 -1.540253 -0.032127 27.115823 1.672968 0.310962 -22.903834 0.000000 0.000000 0.000000 -22.557955 5.723658 -4.611090 -54.805365 -1.355436 -8.332886 -16.220405 -28.095643 5.749263 0.000000 0.000000 0.000000 14.594220 -1.488756 -1.530385 61.893349 -1.546919 -9.475204 12.245672 30.480933 4.747151 0.000000 0.000000 0.000000 
-0.001323 0.952460 -0.000624 -1.999988 -1.054016 6.003214 7.271488 -0.167780 -0.161537 -1.143162 0.282066 -6.481143 5.367606 13.341742 13.613504 0.000000 0.000000 0.000000 -2.818474 0.394491 -3.772503 1.295832 -0.209793 -2.749913 -6.343939 -17.826947 27.452666 0.000000 0.000000 0.000000 -1.763769 0.099474 -1.849487 5.143531 -0.429635 -26.698281 -1.619428 0.372949 25.989992 1.685893 0.330226 -22.753303 0.000000 0.000000 0.000000 -22.860765 6.674346 -5.313847 -54.021254 -1.593324 -7.986160 -18.632942 -28.459940 6.438209 0.000000 0.000000 0.000000 14.257739 -1.813896 -1.675557 62.431744 -2.355790 -9.835213 12.616940 31.464856 5.018138 0.000000 0.000000 0.000000 
-0.002367 0.952242 -0.001281 -1.567185 -0.941242 5.595483 7.305965 -0.169035 -0.344471 -1.889616 0.303852 -5.518187 5.292133 13.207791 13.365326 0.000000 0.000000 0.000000 -2.889640 0.384301 -3.680897 0.636418 -0.135620 -2.067316 -6.256165 -17.662910 26.880207 0.000000 0.000000 0.000000 -1.626976 0.093528 -1.796445 4.694801 -0.317101 -26.976375 -1.959920 0.056436 26.820119 1.627006 0.326350 -22.998493 0.000000 0.000000 0.000000 -22.663364 6.159174 -4.861370 -53.714588 -2.092516 -7.846047 -18.759334 -29.638526 6.804021 0.000000 0.000000 0.000000 14.674632 -0.965789 -1.313874 62.030395 -1.936373 -9.659928 11.744425 32.696515 4.988246 0.000000 0.000000 0.000000 
-0.003342 0.952349 -0.002048 -1.745116 -1.401436 6.123403 7.688955 -0.190960 -0.989084 -2.197568 0.321742 -5.307710 5.564007 13.597663 13.540777 0.000000 0.000000 0.000000 -2.935345 0.467483 -4.705250 0.909143 -0.135473 -1.368156 -5.591720 -16.833535 26.498564 0.000000 0.000000 0.000000 -1.790462 0.116924 -2.421206 5.001165 -0.386193 -26.948553 -2.016452 -0.127785 26.588310 1.743102 0.150057 -22.532479 0.000000 0.000000 0.000000 -22.562990 6.982968 -5.229909 -54.018205 -2.372978 -7.723675 -18.858294 -30.412486 7.070175 0.000000 0.000000 0.000000 13.409080 -0.773974 -1.211829 62.626904 -1.845378 -9.683206 12.464655 33.552328 5.311305 0.000000 0.000000 0.000000 
-0.004231 0.952828 -0.002846 -1.731988 -1.209964 6.011709 7.679916 -0.199360 -1.248567 -2.060130 0.303638 -4.804988 5.469269 13.476135 13.559862 0.000000 0.000000 0.000000 -2.917975 0.472812 -4.795256 0.649884 -0.102016 -1.054230 -4.994541 -16.016908 26.791770 0.000000 0.000000 0.000000 -1.814612 0.105505 -2.044070 5.214373 -0.487961 -26.110335 -2.325079 0.021465 25.670233 1.856913 0.131748 -22.369021 0.000000 0.000000 0.000000 -22.450098 6.624369 -5.122622 -53.755035 -3.110345 -7.253226 -19.179818 -30.917976 7.225585 0.000000 0.000000 0.000000 13.263949 -1.206505 -1.385062 62.659142 -1.603807 -9.426811 13.288733 34.297762 5.703891 0.000000 0.000000 0.000000 
-0.004851 0.953139 -0.003462 -1.797264 -1.345623 6.080536 7.655860 -0.198796 -1.301584 -1.848627 0.290630 -4.859861 5.530347 13.574004 13.724449 0.000000 0.000000 0.000000 -2.880713 0.487873 -4.977841 0.455490 -0.074704 -0.795432 -4.152727 -14.864470 26.425285 0.000000 0.000000 0.000000 -1.979025 0.103426 -1.862843 5.354262 -0.486718 -26.569981 -2.209272 0.050675 26.108897 2.007379 -0.000064 -22.105196 0.000000 0.000000 0.000000 -22.787037 6.731520 -5.205221 -53.684370 -3.725993 -7.033239 -18.808087 -31.250688 7.222613 0.000000 0.000000 0.000000 12.450468 -1.070465 -1.254090 62.828522 -1.438969 -9.416477 14.168562 34.954310 6.110638 0.000000 0.000000 0.000000 
-0.005200 0.953116 -0.003882 -1.795726 -1.258496 5.985055 7.684770 -0.201215 -1.385249 -1.841039 0.285233 -4.609846 5.495759 13.523717 13.655288 0.000000 0.000000 0.000000 -2.883020 0.497299 -5.115119 0.370381 -0.050913 -0.363294 -3.906223 -14.503454 26.353339 0.000000 0.000000 0.000000 -1.954488 0.094468 -1.564417 5.223123 -0.489000 -26.129532 -2.226955 -0.052236 25.754729 2.006392 0.010687 -22.264547 0.000000 0.000000 0.000000 -23.080045 6.811522 -5.299983 -53.594114 -4.125773 -6.814347 -19.178410 -31.484671 7.387566 0.000000 0.000000 0.000000 12.340893 -0.832872 -1.147866 62.825310 -1.446007 -9.375413 14.304795 35.567178 6.259659 0.000000 0.000000 0.000000 
-0.005329 0.953315 -0.004122 -1.764910 -1.280437 5.902141 7.507219 -0.197524 -1.374490 -1.579966 0.264610 -4.492475 5.502804 13.538275 13.696479 0.000000 0.000000 0.000000 -2.648262 0.508163 -5.244198 0.177536 -0.015446 0.065335 -4.418635 -15.182140 26.044959 0.000000 0.000000 0.000000 -2.081569 0.090544 -1.356017 5.329714 -0.506369 -26.212323 -2.206940 0.169875 25.863174 1.933516 0.057480 -21.862305 0.000000 0.000000 0.000000 -23.533434 6.327100 -5.127466 -53.482334 -4.367271 -6.712085 -18.542704 -31.673541 7.227374 0.000000 0.000000 0.000000 12.484742 -0.625604 -1.021836 62.721419 -1.269110 -9.272383 14.417615 35.511408 6.307812 0.000000 0.000000 0.000000 
-0.005299 0.953376 -0.004258 -1.830687 -1.271464 5.787627 7.516314 -0.197677 -1.444160 -1.469846 0.249654 -4.164211 5.519649 13.555582 13.610689 0.000000 0.000000 0.000000 -2.453345 0.504048 -5.183051 -0.017754 0.014121 0.304016 -4.366656 -15.071034 25.660362 0.000000 0.000000 0.000000 -2.147361 0.087059 -1.200437 5.473993 -0.547795 -26.084222 -2.197747 0.519042 25.851512 2.142785 0.000865 -22.048085 0.000000 0.000000 0.000000 -23.348697 6.244931 -5.157464 -53.908173 -4.594018 -6.633576 -18.092076 -31.016623 6.902400 0.000000 0.000000 0.000000 12.708669 -0.530509 -0.935037 62.404074 -1.282617 -9.209704 14.088107 35.191631 6.162245 0.000000 0.000000 0.000000 
-0.005243 0.953769 -0.004400 -1.836603 -1.330270 5.643090 7.325554 -0.194122 -1.493407 -1.144856 0.216854 -3.797878 5.554395 13.607573 13.637436 0.000000 0.000000 0.000000 -2.487319 0.511979 -5.293329 -0.039209 0.031552 0.677715 -4.205196 -14.888790 25.948995 0.000000 0.000000 0.000000 -2.214136 0.083215 -1.031507 5.384517 -0.536553 -26.001745 -2.043600 0.820509 25.964946 2.040171 0.126108 -22.272804 0.000000 0.000000 0.000000 -23.282437 6.154449 -5.163620 -54.474419 -4.869931 -6.566795 -17.316132 -30.525726 6.550554 0.000000 0.000000 0.000000 12.682980 -0.206055 -0.732647 62.406800 -1.015101 -9.063838 13.572081 34.712165 5.923834 0.000000 0.000000 0.000000 
-0.005163 0.953769 -0.004550 -1.776027 -1.304778 5.591330 7.387097 -0.192639 -1.435922 -1.372772 0.235223 -3.831969 5.523717 13.563385 13.637068 0.000000 0.000000 0.000000 -2.475946 0.507425 -5.241260 -0.065775 0.036670 0.733112 -4.420135 -15.158042 25.727711 0.000000 0.000000 0.000000 -2.324373 0.081920 -0.906860 5.394936 -0.537701 -26.011237 -1.985769 1.107778 26.049214 1.999370 0.196944 -22.218158 0.000000 0.000000 0.000000 -23.405562 6.042160 -5.204496 -54.608845 -4.848755 -6.580293 -16.658474 -29.888865 6.192417 0.000000 0.000000 0.000000 12.957225 0.124120 -0.534481 62.455004 -0.820118 -8.963434 12.929683 34.045545 5.622929 0.000000 0.000000 0.000000 
-0.005109 0.953798 -0.004717 -1.765933 -0.959385 5.596974 7.550921 -0.201093 -1.459933 -1.612258 0.254814 -3.950798 5.336641 13.303980 13.586975 0.000000 0.000000 0.000000 -2.528774 0.509389 -5.286711 -0.006429 0.035175 0.858193 -4.473532 -15.182996 25.889178 0.000000 0.000000 0.000000 -2.453615 0.080055 -0.731359 5.446192 -0.533222 -26.185720 -1.971608 1.199416 26.075631 2.038291 0.226933 -22.248368 0.000000 0.000000 0.000000 -23.237423 5.810584 -5.138441 -55.102148 -4.792409 -6.635964 -16.255107 -29.468814 5.962156 0.000000 0.000000 0.000000 13.209581 0.381653 -0.363883 62.634226 -0.286345 -8.690601 11.851884 33.244227 5.180130 0.000000 0.000000 0.000000 
-0.005004 0.953673 -0.004995 -1.775008 -0.744816 5.509913 7.690230 -0.204763 -1.460374 -1.804295 0.267554 -3.894533 5.229768 13.149144 13.478319 0.000000 0.000000 0.000000 -2.489871 0.504153 -5.233012 -0.016007 0.033068 0.781651 -4.747998 -15.570412 26.418198 0.000000 0.000000 0.000000 -2.675939 0.080257 -0.574520 5.503564 -0.541675 -26.200426 -1.799219 1.151627 25.970648 1.938839 0.296583 -22.165433 0.000000 0.000000 0.000000 -23.345858 5.602690 -5.063791 -55.396118 -5.000221 -6.554673 -15.864171 -29.028788 5.749550 0.000000 0.000000 0.000000 13.773483 0.998976 -0.067601 62.524249 0.301654 -8.365772 10.548964 32.388668 4.651941 0.000000 0.000000 0.000000 
-0.004792 0.953627 -0.005488 -1.818557 -0.482769 5.371577 7.956066 -0.211802 -1.540350 -2.153754 0.288814 -3.641937 5.105191 12.961595 13.317645 0.000000 0.000000 0.000000 -2.510054 0.493152 -5.116980 0.109910 0.021719 0.849092 -4.845163 -15.660582 26.509005 0.000000 0.000000 0.000000 -2.963791 0.079074 -0.237292 5.681726 -0.567396 -26.353125 -1.603859 1.358210 26.007874 1.925670 0.367210 -22.191683 0.000000 0.000000 0.000000 -23.258198 5.209001 -4.926769 -55.735628 -5.281135 -6.451206 -15.631786 -28.629798 5.574111 0.000000 0.000000 0.000000 14.644778 1.570845 0.265397 62.150366 1.212255 -7.862697 9.267963 31.454716 4.167559 0.000000 0.000000 0.000000 
-0.004292 0.953854 -0.006302 -1.860701 -0.561706 5.201495 8.064279 -0.208660 -1.566541 -2.333603 0.299033 -3.334755 5.141117 13.005765 13.286251 0.000000 0.000000 0.000000 -2.631357 0.477796 -4.942299 0.239718 -0.001529 0.613558 -4.656571 -15.463921 27.032710 0.000000 0.000000 0.000000 -3.020853 0.077175 -0.124269 5.630535 -0.582529 -26.036860 -1.332488 1.866971 25.943847 1.905189 0.472628 -22.393123 0.000000 0.000000 0.000000 -22.988549 4.563682 -4.630250 -55.941490 -5.737394 -6.244490 -15.401318 -28.665793 5.484368 0.000000 0.000000 0.000000 15.578927 2.305398 0.709952 61.610388 2.424204 -7.189120 7.970215 30.794526 3.739926 0.000000 0.000000 0.000000 
-0.003264 0.954220 -0.007390 -1.944606 -0.119347 4.941688 8.323515 -0.217540 -1.689054 -2.652598 0.317888 -2.917525 4.915806 12.681428 13.120799 0.000000 0.000000 0.000000 -2.857588 0.461026 -4.790884 0.448289 -0.020747 0.726180 -4.241356 -14.885351 27.750737 0.000000 0.000000 0.000000 -3.268760 0.074723 0.219186 5.614463 -0.598887 -25.702361 -0.900667 2.051456 25.892143 1.329758 0.907459 -22.420024 0.000000 0.000000 0.000000 -22.733149 3.807440 -4.281249 -56.368377 -6.673261 -5.826558 -15.472029 -28.805623 5.496763 0.000000 0.000000 0.000000 16.125517 3.368496 1.357678 61.028260 3.608422 -6.532332 7.036725 30.846915 3.518098 0.000000 0.000000 0.000000 
